<?xml version="1.0" encoding="utf-8"?>
<!-- Generator: Adobe Illustrator 27.0.0, SVG Export Plug-In . SVG Version: 6.00 Build 0)  -->
<svg version="1.1" id="Слой_1" xmlns="http://www.w3.org/2000/svg" xmlns:xlink="http://www.w3.org/1999/xlink" x="0px" y="0px"
	 viewBox="0 0 1000 1000" style="enable-background:new 0 0 1000 1000;" xml:space="preserve">
<style type="text/css">
	.st0{fill:#F9E6E8;}
</style>
<path class="st0" d="M858.17,463.56c0.77-4.75,0.79-8.76,0.08-11.96c-0.7-3.25-2.14-5.74-4.28-7.39c-2.13-1.65-4.67-2.48-7.56-2.48
	c-3.22,0-6.46,1-9.62,2.99c-2.45,1.54-4.43,3.49-5.94,5.78c-1.51-2.3-3.5-4.25-5.94-5.78c-3.16-1.98-6.39-2.99-9.61-2.99
	c-2.89,0-5.43,0.83-7.56,2.48c-2.14,1.66-3.58,4.14-4.28,7.39c-0.72,3.2-0.69,7.22,0.08,11.97l1.16,5.43
	c1.6,6.28,4.13,12.97,7.53,19.9c3.44,7.01,7.24,13.29,11.3,18.66c0.28,0.38,0.56,0.73,0.84,1.09c-1.02,1.87-1.85,3.55-2.47,5
	c-0.79,1.64-1.13,2.94-1.05,3.97c0.19,2.33,2.34,3.01,5.98,1.04c1.28-0.72,2.62-1.7,4.01-2.92c1.39,1.23,2.74,2.21,4.03,2.93
	c3.61,1.96,5.79,1.28,5.97-1.04c0.08-1.04-0.26-2.34-1.03-3.93c-0.62-1.47-1.46-3.16-2.49-5.05c0.28-0.36,0.56-0.71,0.85-1.09
	c4.05-5.38,7.86-11.66,11.3-18.66c3.4-6.92,5.93-13.61,7.53-19.9L858.17,463.56z M836.89,515.66c-0.89-0.72-1.89-1.74-2.95-2.99
	c0.53-0.57,1.06-1.19,1.6-1.82c0.77,1.44,1.43,2.76,1.94,3.92c0.37,0.84,0.54,1.38,0.61,1.72c-0.15-0.07-0.29-0.14-0.43-0.24
	C837.38,516.06,837.14,515.88,836.89,515.66z M824.04,516.25c-0.13,0.09-0.27,0.17-0.42,0.24c0.07-0.34,0.23-0.88,0.61-1.73
	c0.51-1.16,1.16-2.48,1.94-3.92c0.54,0.64,1.08,1.25,1.6,1.82c-1.08,1.26-2.08,2.29-2.99,3.02
	C824.57,515.87,824.33,516.06,824.04,516.25z M822.22,446.26c2.14,1.09,3.83,2.61,5.03,4.52c1.15,1.84,1.45,3.7,0.89,5.72
	c-0.04,0.16-0.16,0.56-0.56,1.46c-0.41,0.91-0.6,1.6-0.6,2.21c0.04,0.89,0.37,1.65,0.96,2.2c0.58,0.54,1.3,0.83,2.07,0.83
	c0.24,0,0.53-0.05,0.83-0.15c0.31,0.1,0.6,0.15,0.84,0.15c0.78,0,1.48-0.28,2.07-0.83c0.59-0.55,0.92-1.31,0.96-2.24
	c0-0.57-0.19-1.26-0.6-2.16c-0.4-0.9-0.52-1.3-0.57-1.5c-0.54-1.98-0.24-3.84,0.9-5.67c1.2-1.91,2.89-3.43,5.03-4.52
	c2.17-1.1,4.4-1.66,6.64-1.66c2.24,0,4.04,0.61,5.51,1.86c1.43,1.22,2.26,3.16,2.48,5.75c0.36,4.84-1.21,11.91-4.67,21
	c-6.13,7.18-11.85,14.71-17,22.36c-0.55,0.82-1.08,1.62-1.59,2.41c-0.52-0.79-1.04-1.58-1.59-2.41c-5.15-7.66-10.87-15.19-17-22.36
	c-3.46-9.09-5.03-16.15-4.67-20.99c0.22-2.6,1.05-4.54,2.48-5.76c1.47-1.25,3.27-1.86,5.51-1.86
	C817.82,444.6,820.05,445.16,822.22,446.26z M827.57,497.95c0.58,0.86,1.14,1.7,1.68,2.52c-0.65,1.02-1.28,2.02-1.86,2.97
	c-0.65-1.03-1.31-2.11-1.99-3.25c-3.46-5.81-6.58-11.8-9.34-17.88C820.18,487.46,824.03,492.7,827.57,497.95z M830.85,502.95
	c0.67,1.04,1.28,2.03,1.86,3c-0.64,0.98-1.26,1.87-1.86,2.73c-0.6-0.85-1.22-1.75-1.86-2.73
	C829.57,504.98,830.19,503.99,830.85,502.95z M832.46,500.47c0.54-0.82,1.1-1.66,1.68-2.52c3.53-5.24,7.39-10.48,11.51-15.64
	c-2.75,6.07-5.88,12.06-9.34,17.88c-0.68,1.15-1.34,2.22-1.99,3.26C833.74,502.49,833.11,501.49,832.46,500.47z"/>
<g>
	<path class="st0" d="M295.98,469.15c3.95,0,6.98,0.78,9.09,2.33s3.16,3.45,3.16,5.68c0,2.19-1.3,3.95-3.89,5.27
		s-4.73,2.08-6.4,2.25c3.55,0.59,6.4,1.6,8.55,3.01s3.23,3.36,3.23,5.85c0,2.73-1.38,4.8-4.14,6.21s-5.81,2.11-9.15,2.11h-25.57
		v-0.91c2.81,0,4.66-0.53,5.54-1.59s1.32-2.74,1.32-5.04V476.7c0-2.3-0.44-3.98-1.32-5.04s-2.73-1.59-5.54-1.59v-0.91H295.98z
		 M284.71,469.95v14.32h5.98c4.02,0,6.66-0.73,7.95-2.19s1.92-3.24,1.92-5.33c0-2.11-0.57-3.77-1.7-4.98s-3.43-1.82-6.9-1.82H284.71
		z M284.71,485.23v15.75h7.2c3.17,0,5.59-0.69,7.27-2.06s2.51-3.38,2.51-6c0-2.44-0.91-4.33-2.73-5.67s-4.65-2.02-8.5-2.02H284.71z"
		/>
	<path class="st0" d="M330.55,486.36v14.62h3.16c6.53,0,10.96-1.18,13.28-3.54s3.85-5.39,4.58-9.09h0.96v13.52h-35.77v-0.91
		c2.81,0,4.66-0.53,5.54-1.59s1.32-2.74,1.32-5.04V476.7c0-2.3-0.44-3.98-1.32-5.04s-2.73-1.59-5.54-1.59v-0.91h34.9v12.73h-0.8
		c-1.38-4.95-3.14-8.17-5.29-9.64s-5.78-2.21-10.89-2.21h-4.15v15.45c3.12,0,5.52-0.82,7.17-2.46s2.62-4.26,2.91-7.85h0.87v21.52
		h-0.87c-0.28-3.59-1.25-6.21-2.91-7.85S333.67,486.36,330.55,486.36z"/>
	<path class="st0" d="M376.09,468.52h1.03l13.69,29.67c0.62,1.14,1.45,1.89,2.48,2.24s2.12,0.53,3.28,0.53v0.91h-19.05v-0.91
		c2.7,0,4.39-0.18,5.05-0.53s1-0.9,1-1.65c-0.03-0.8-0.99-3.18-2.88-7.15h-13.64l-1.43,3.21c-0.16,0.41-0.23,1.05-0.23,1.92
		c0.14,1.44,0.65,2.5,1.54,3.18s1.94,1.02,3.18,1.02v0.91h-13.43v-0.91c3.81,0,7.14-3.7,9.98-11.09L376.09,468.52z M367.37,490.76
		h12.84l-6.45-14.41L367.37,490.76z"/>
	<path class="st0" d="M398.33,469.15h22.78v0.91c-3.22,0-5.45,0.38-6.69,1.14s-1.86,2.98-1.86,6.67v13.03c0,4.05,0.94,6.85,2.82,8.4
		s4.81,2.33,8.78,2.33c3.34,0,6.14-0.82,8.39-2.45s3.38-4.32,3.38-8.07v-9.8c0-4.84-0.7-7.93-2.1-9.26s-3.45-1.99-6.15-1.99v-0.91
		h15.94v0.91c-2,0-3.65,0.69-4.95,2.06s-1.95,3.98-1.95,7.83v11.84c0,3.58-1.25,6.27-3.75,8.09s-5.97,2.72-10.41,2.72
		c-6.38,0-10.78-1-13.22-3s-3.66-4.41-3.66-7.24v-14.41c0-3.73-0.65-5.98-1.96-6.74s-3.11-1.14-5.4-1.14V469.15z"/>
	<path class="st0" d="M470.31,494.32c0,2.3,0.44,3.98,1.32,5.04s2.73,1.59,5.54,1.59h4.01v0.91h-28.64v-0.91h4.01
		c2.81,0,4.66-0.53,5.54-1.59s1.32-2.74,1.32-5.04v-24.3h-1.52c-4.14,0-7.35,1.64-9.62,4.92s-3.54,6.9-3.81,10.85h-0.87v-16.64
		h38.53v16.64h-0.87c-0.27-3.95-1.54-7.57-3.81-10.85s-5.48-4.92-9.62-4.92h-1.52V494.32z"/>
	<path class="st0" d="M489.55,469.15h21.02v0.91h-2.02c-1.38,0-2.29,0.2-2.74,0.59s-0.68,0.91-0.68,1.55c0,0.44,0.39,1.2,1.16,2.29
		s1.93,2.64,3.48,4.68l5.09,7.01l7.97-10.62c0.28-0.48,0.46-0.87,0.55-1.16s0.14-0.6,0.15-0.93c0-1.23-0.51-2.11-1.52-2.62
		s-2.77-0.77-5.27-0.77v-0.91h16.88v0.91c-1.36,0-2.95,0.46-4.78,1.37s-3.55,2.43-5.16,4.56l-8.46,11.32v5.93
		c0,3.38,0.53,5.5,1.59,6.39s3.25,1.32,6.56,1.32v0.91h-23.34v-0.91c3.95,0,6.33-0.59,7.12-1.77s1.2-3.19,1.2-6.04v-5.13
		l-10.57-14.37c-0.64-0.92-1.56-1.75-2.75-2.48s-3.02-1.1-5.47-1.1V469.15z"/>
	<path class="st0" d="M579.2,469.15c3.95,0,6.98,0.78,9.09,2.33s3.16,3.45,3.16,5.68c0,2.19-1.3,3.95-3.89,5.27s-4.73,2.08-6.4,2.25
		c3.55,0.59,6.4,1.6,8.55,3.01s3.23,3.36,3.23,5.85c0,2.73-1.38,4.8-4.14,6.21s-5.81,2.11-9.15,2.11H554.1v-0.91
		c2.81,0,4.66-0.53,5.54-1.59s1.32-2.74,1.32-5.04V476.7c0-2.3-0.44-3.98-1.32-5.04s-2.73-1.59-5.54-1.59v-0.91H579.2z
		 M567.92,469.95v14.32h5.98c4.02,0,6.66-0.73,7.95-2.19s1.92-3.24,1.92-5.33c0-2.11-0.57-3.77-1.7-4.98s-3.43-1.82-6.9-1.82H567.92
		z M567.92,485.23v15.75h7.2c3.17,0,5.59-0.69,7.27-2.06s2.51-3.38,2.51-6c0-2.44-0.91-4.33-2.73-5.67s-4.65-2.02-8.5-2.02H567.92z"
		/>
	<path class="st0" d="M625.67,469.15c5.09,0,8.64,0.83,10.63,2.48s2.99,3.47,2.99,5.44v1.03c0,2.2-1.37,4.05-4.11,5.53
		s-6.11,2.23-10.09,2.23h-4.17c2.62,1.52,4.51,2.52,5.65,3.01s2.63,0.96,4.48,1.39l5.62,7.9c0.89,1.17,1.88,1.93,2.98,2.27
		s2.39,0.52,3.89,0.52v0.91h-12.4l-11.37-16.01h-7.2v8.46c0,2.3,0.44,3.98,1.32,5.04s2.73,1.59,5.54,1.59v0.91h-20.62v-0.91
		c2.81,0,4.66-0.53,5.54-1.59s1.32-2.74,1.32-5.04V476.7c0-2.3-0.44-3.98-1.32-5.04s-2.73-1.59-5.54-1.59v-0.91H625.67z M612.57,485
		h8.41c4.19,0,6.98-0.69,8.37-2.07s2.09-3.07,2.09-5.05v-0.73c0-2-0.72-3.69-2.16-5.06s-4.3-2.06-8.6-2.06h-8.11V485z"/>
	<path class="st0" d="M665.92,468.52h1.03l13.69,29.67c0.62,1.14,1.45,1.89,2.48,2.24s2.12,0.53,3.28,0.53v0.91h-19.05v-0.91
		c2.7,0,4.39-0.18,5.05-0.53s1-0.9,1-1.65c-0.03-0.8-0.99-3.18-2.88-7.15h-13.64l-1.43,3.21c-0.16,0.41-0.23,1.05-0.23,1.92
		c0.14,1.44,0.65,2.5,1.54,3.18s1.94,1.02,3.18,1.02v0.91h-13.43v-0.91c3.81,0,7.14-3.7,9.98-11.09L665.92,468.52z M657.2,490.76
		h12.84l-6.45-14.41L657.2,490.76z"/>
	<path class="st0" d="M689.38,469.15h13.12l22.78,23.37v-11.6c0-4.42-0.73-7.34-2.2-8.74s-3.32-2.11-5.55-2.11v-0.91h16.17v0.91
		c-2.19,0-3.99,0.63-5.4,1.9s-2.12,4.33-2.12,9.19v21.05h-0.8l-28.24-28.9v18.38c0,4.22,0.78,6.82,2.34,7.8s3.69,1.48,6.38,1.48
		v0.91h-17.11v-0.91c1.81,0,3.52-0.47,5.11-1.41s2.39-3.18,2.39-6.73v-15.84c0-2.81-0.6-4.67-1.79-5.57s-2.89-1.35-5.07-1.35V469.15
		z"/>
	<path class="st0" d="M761.68,469.15c6.38,0,11.28,1.74,14.71,5.21s5.14,7.15,5.14,11.03v1.03c0,4.34-1.84,8-5.53,10.98
		s-8.03,4.46-13.03,4.46h-24.23v-0.91c3.03,0,4.99-0.53,5.87-1.59s1.32-2.74,1.32-5.04V476.7c0-2.3-0.44-3.98-1.32-5.04
		s-2.84-1.59-5.87-1.59v-0.91H761.68z M752.8,470.02v30.89h5.3c6.44,0,10.59-1.42,12.47-4.27s2.81-6.2,2.81-10.05v-1.76
		c0-4.8-1.16-8.46-3.48-11s-6.33-3.81-12.04-3.81H752.8z"/>
</g>
<g>
	<path class="st0" d="M286.68,440.95c0.05,0.62-0.07,1.1-0.36,1.44l-0.14,0.14c-0.1,0.1-0.19,0.19-0.29,0.29
		c-0.34,0.19-0.82,0.38-1.44,0.58c-1.83,0.62-4.78,1.13-8.86,1.51c-0.72,0.05-1.08-0.22-1.08-0.79c-0.05-0.62,0.29-0.96,1.01-1.01
		c0.24,0,0.5-0.02,0.79-0.07c0.38-0.05,0.77-0.1,1.15-0.14c1.05-0.14,2.02-0.29,2.88-0.43c2.54-0.43,3.98-0.91,4.32-1.44
		c-1.58-0.96-6.22-1.49-13.9-1.58c-2.64,0-5.5,0.02-8.57,0.07c-1.15,0.05-2.28,0.1-3.38,0.14c-0.91,0-1.68,0.02-2.3,0.07
		c-14.54,0.58-28.44,1.9-41.69,3.96c-2.35,0.38-6.02,0.96-11.02,1.73l-5.62,0.94l-5.69,0.86c-8.98,1.44-16.56,2.5-22.75,3.17
		c-17.18,1.87-30.36,1.78-39.53-0.29c-8.35-1.92-13.9-5.4-16.63-10.44c-2.78-5.14-1.51-10.18,3.82-15.12
		c4.56-4.18,11.02-7.63,19.37-10.37c9.26-2.98,18.65-4.22,28.15-3.74c4.7,0.19,7.75,1.25,9.14,3.17c0.72,0.91,0.96,1.83,0.72,2.74
		c0,0.72-0.36,1.08-1.08,1.08c-0.72,0.05-1.08-0.36-1.08-1.22c-0.05-1.34-0.91-2.3-2.59-2.88c-1.15-0.33-2.91-0.55-5.26-0.65
		c-9.41-0.38-18.55,0.91-27.43,3.89c-7.87,2.69-13.87,6.02-18,10.01c-4.46,4.27-5.3,8.47-2.52,12.6c2.54,3.74,7.22,6.38,14.04,7.92
		c9.02,2.11,22.42,2.23,40.18,0.36c6.34-0.67,13.9-1.66,22.68-2.95l5.47-0.79l5.33-0.86c4.61-0.72,7.92-1.22,9.94-1.51
		c12.77-1.92,26.76-3.17,41.98-3.74c0.38,0,0.74-0.02,1.08-0.07h1.44c1.25-0.05,2.45-0.1,3.6-0.14c3.31-0.09,6.34-0.12,9.07-0.07
		c7.92,0.19,12.67,0.91,14.26,2.16C286.37,439.82,286.63,440.33,286.68,440.95z M205.39,445.7c0.96,0.38,1.27,1.06,0.94,2.02h-0.07
		c-0.34,0.82-1.13,3.02-2.38,6.62c-0.72,2.02-1.32,3.7-1.8,5.04c-0.72,2.02-1.42,3.94-2.09,5.76c-3.94,10.66-7.75,19.73-11.45,27.22
		c-1.15,2.3-2.98,5.9-5.47,10.8c3.02-1.92,6.6-3.98,10.73-6.19c1.49-0.77,3.14-1.61,4.97-2.52c0.62-0.34,1.34-0.72,2.16-1.15
		l1.01-0.5l0.94-0.43c0.67-0.34,1.18-0.17,1.51,0.5c0.33,0.62,0.17,1.1-0.5,1.44l-0.86,0.43l-1.01,0.5
		c-0.96,0.48-1.78,0.89-2.45,1.22c-2.11,1.06-4.06,2.06-5.83,3.02c-5.18,2.78-9.46,5.38-12.82,7.78c-1.06,2.02-2.21,4.2-3.46,6.55
		c-0.91,1.68-1.94,3.62-3.1,5.83c-2.06,3.84-3.1,5.78-3.1,5.83c-0.29,0.48-0.7,0.69-1.22,0.65c-0.53,0-0.89-0.26-1.08-0.79
		c-1.01-3.36-0.58-6.91,1.3-10.66c1.2-2.5,3.94-5.28,8.21-8.35c2.78-5.38,5.33-10.42,7.63-15.12c3.65-7.58,7.37-16.61,11.16-27.07
		c0.67-1.82,1.34-3.74,2.02-5.76c0.48-1.39,1.06-3.07,1.73-5.04c1.25-3.7,2.04-5.95,2.38-6.77
		C203.76,445.6,204.43,445.32,205.39,445.7z M175.8,511.36c-1.58,1.44-2.76,2.88-3.53,4.32c-1.01,2.21-1.51,4.01-1.51,5.4
		C172.39,517.87,174.07,514.63,175.8,511.36z"/>
	<path class="st0" d="M226.63,499.56c0.33,0,0.58,0.12,0.72,0.36c0.34,0.48,0.22,1.01-0.36,1.58c-0.77,0.67-2.04,1.63-3.82,2.88
		c-3.02,1.92-5.57,3.24-7.63,3.96c-2.74,0.91-4.32,0.6-4.75-0.94c-0.24-0.82,0.58-2.81,2.45-5.98l1.01-1.73
		c0.38-0.67,0.7-1.25,0.94-1.73c0.58-1.2,0.86-2.09,0.86-2.66c-1.44-0.14-4.56,1.71-9.36,5.54l-1.37,1.08l-1.3,1.01
		c-1.06,0.91-1.85,1.56-2.38,1.94c-1.58,1.25-2.57,1.9-2.95,1.94c0.1,0.1,0.12,0.14,0.07,0.14s-0.17-0.02-0.36-0.07
		c-0.14-0.1-0.34-0.22-0.58-0.36c-0.24-0.19-0.5-0.46-0.79-0.79c-0.24-1.1,1.03-4.58,3.82-10.44c2.83-5.95,6.12-11.98,9.86-18.07
		c4.22-7.01,7.92-12.22,11.09-15.62c3.74-4.03,6.31-5.02,7.7-2.95c1.97,2.93-0.55,9.05-7.56,18.36
		c-5.67,7.54-12.17,14.66-19.51,21.38l-1.51,3.53l0.79-0.65l0.79-0.65c0.67-0.53,1.27-0.98,1.8-1.37c1.44-1.1,2.71-2.06,3.82-2.88
		c3.07-2.11,5.4-3.29,6.98-3.53c1.25-0.14,2.16,0.1,2.74,0.72c0.62,0.72,0.72,1.78,0.29,3.17c-0.34,1.01-1.08,2.5-2.23,4.46
		l-0.72,1.22l-0.65,1.08c-0.53,0.86-0.91,1.54-1.15,2.02c-0.53,1.06-0.05,1.32,1.44,0.79c0.58-0.19,1.27-0.48,2.09-0.86
		c0.62-0.33,1.3-0.7,2.02-1.08c2.16-1.15,4.39-2.66,6.7-4.54C225.91,499.6,226.25,499.51,226.63,499.56z M227.64,459.81
		c-2.11,0.14-5.64,4.01-10.58,11.59c-4.22,6.53-8.3,13.8-12.24,21.82c6.67-6.53,12.36-13.18,17.06-19.94
		c4.94-7.06,6.89-11.54,5.83-13.46H227.64z"/>
	<path class="st0" d="M250.32,501.5c-0.77,0.72-2.04,1.68-3.82,2.88l-0.58,0.36l-0.65,0.43c-0.48,0.34-0.94,0.62-1.37,0.86
		c-1.2,0.67-2.33,1.2-3.38,1.58c-2.93,1.15-5.78,1.44-8.57,0.86c-1.97-0.43-3.38-1.44-4.25-3.02c-0.72-1.39-0.84-2.78-0.36-4.18
		c-0.72,0.58-1.3,1.01-1.73,1.3c-0.14,0.1-0.36,0.14-0.65,0.14c-0.24-0.05-0.46-0.17-0.65-0.36c-0.14-0.19-0.19-0.43-0.14-0.72
		c0.05-0.29,0.14-0.5,0.29-0.65c0.14-0.14,0.41-0.38,0.79-0.72l0.29-0.29l0.29-0.22c0.24-0.24,0.48-0.46,0.72-0.65
		c0.1-0.05,0.38-0.24,0.86-0.58l0.29-0.14l0.36-0.29l0.79-0.5c1.44-2.35,3.34-4.22,5.69-5.62c2.54-1.58,4.9-2.09,7.06-1.51
		c0.96,0.24,1.63,0.72,2.02,1.44c0.91,1.49-0.58,3.05-4.46,4.68c-0.67,0.29-1.44,0.58-2.3,0.86l-1.15,0.43l-1.08,0.36
		c-1.68,0.58-2.69,0.98-3.02,1.22c-1.01,1.78-1.3,3.24-0.86,4.39c0.38,1.1,1.3,1.8,2.74,2.09c3.26,0.72,7.06-0.31,11.38-3.1
		c1.2-0.72,2.59-1.73,4.18-3.02c0.29-0.24,0.6-0.33,0.94-0.29c0.33,0,0.6,0.12,0.79,0.36C251.04,500.4,250.9,500.92,250.32,501.5z
		 M241.46,493l-0.36-0.14c-0.14,0-0.31-0.02-0.5-0.07c-0.48,0-0.98,0.05-1.51,0.14c-1.49,0.38-3.12,1.37-4.9,2.95l-0.58,0.58
		c1.25-0.43,2.5-0.91,3.74-1.44c1.54-0.67,2.88-1.34,4.03-2.02H241.46z"/>
</g>
</svg>
